<svg width="164" height="128" viewBox="0 0 164 128" fill="none" xmlns="http://www.w3.org/2000/svg">
<path fill-rule="evenodd" clip-rule="evenodd" d="M86.3158 128L66.1754 99.5556L25.8947 110.933L40.2807 79.6444L0 65.4222L40.2807 51.2L25.8947 19.9111L66.1754 31.2889L86.3158 0L103.579 31.2889L143.86 19.9111L129.474 51.2L164 65.4222L129.474 79.6444L143.86 108.089L103.579 99.5556L86.3158 128ZM94.9474 82.3653L86.3158 99.4319L74.807 82.3653L51.7895 90.8986L60.4211 73.8319L40.2807 65.2986L60.4211 59.6097L51.7895 42.5431L74.807 45.3875L86.3158 31.1653L94.9474 45.3875L115.088 42.5431L109.333 59.6097L129.474 65.2986L109.333 70.9875L115.088 90.8986L94.9474 82.3653Z" fill="black"/>
<path d="M86.3158 99.4319L94.9474 82.3653L115.088 90.8986L109.333 70.9875L129.474 65.2986L109.333 59.6097L115.088 42.5431L94.9474 45.3875L86.3158 31.1653L74.807 45.3875L51.7895 42.5431L60.4211 59.6097L40.2807 65.2986L60.4211 73.8319L51.7895 90.8986L74.807 82.3653L86.3158 99.4319Z" fill="white"/>
</svg>
