<svg width="24" height="24" viewBox="0 0 24 24" fill="none" xmlns="http://www.w3.org/2000/svg">
<path fill-rule="evenodd" clip-rule="evenodd" d="M16.1728 16.1571C15.4763 17.5035 15.1224 18.2671 13.9862 19.7462C14.6365 22.1971 13.2269 22.1775 13.3005 22.7662C14.1872 23.4864 16.0416 24.1947 18.7862 23.951C18.6475 23.2769 18.3787 22.8922 17.6394 22.1971C19.7202 22.1971 21.1139 21.9346 21.6709 21.0936C21.0569 20.2063 20.3414 19.7193 17.864 18.9099C21.2413 18.3089 22.4263 17.4166 24 15.4021C22.6629 14.942 21.7073 14.824 19.5582 14.9142C18.7895 15.3315 17.9151 15.6766 16.93 15.9248L16.1728 16.1571ZM16.268 17.3883C16.0906 16.8772 20.6424 15.8435 20.7606 16.0874C20.8788 16.3313 16.4453 17.8994 16.268 17.3883ZM15.4995 20.2457C15.535 19.9437 19.2591 20.3502 19.2591 20.78C19.2591 21.2098 15.464 20.5477 15.4995 20.2457ZM15.0266 22.0461C15.2512 21.7092 17.0956 22.7662 17.0128 23.0218C16.93 23.2773 14.802 22.3829 15.0266 22.0461Z" fill="#3C9539"/>
<path fill-rule="evenodd" clip-rule="evenodd" d="M10.0138 19.7462C8.87763 18.267 8.52375 17.5034 7.82723 16.157L7.06995 15.9247C6.08486 15.6765 5.2105 15.3314 4.44176 14.9142C2.29274 14.8239 1.33711 14.942 0 15.402C1.57374 17.4166 2.75873 18.3088 6.13596 18.9099C3.6586 19.7192 2.94312 20.2062 2.32906 21.0936C2.88607 21.9345 4.2798 22.197 6.36059 22.197C5.62134 22.8922 5.35248 23.2769 5.21379 23.951C7.9584 24.1947 9.81281 23.4863 10.6995 22.7662C10.7731 22.1774 9.36355 22.197 10.0138 19.7462ZM7.73202 17.3883C7.90936 16.8772 3.35764 15.8434 3.23941 16.0873C3.12118 16.3313 7.55468 17.8993 7.73202 17.3883ZM8.50049 20.2456C8.46502 19.9436 4.74089 20.3502 4.74089 20.78C4.74089 21.2097 8.53596 20.5477 8.50049 20.2456ZM8.9734 22.046C8.74877 21.7092 6.90443 22.7662 6.98719 23.0217C7.06995 23.2773 9.19803 22.3829 8.9734 22.046Z" fill="#3C9539"/>
<path d="M17.2256 13.8921C16.8709 13.8921 16.6784 14.3002 16.1728 14.9142C15.6283 14.6419 15.3238 14.5121 14.7901 14.5309C13.7928 14.6281 13.509 14.8133 13.2296 15.2511C13.1675 15.5111 13.2314 15.5844 13.5015 15.5995C14.0232 15.409 14.0099 15.1117 14.8374 15.1117C15.665 15.1117 15.866 15.5415 16.2089 15.5182C16.5517 15.495 17.5803 13.8921 17.2256 13.8921Z" fill="#F5F5F5"/>
<path fill-rule="evenodd" clip-rule="evenodd" d="M12.9458 15.9248C13.8443 15.4369 15.2169 15.2106 16.2089 16.0874C16.1967 16.1108 16.1847 16.134 16.1728 16.1571L16.93 15.9248C17.5302 14.9859 17.7082 14.3638 17.9468 13.2068C15.9961 13.9385 14.6489 14.3172 12.3559 14.3799L12.9458 15.1117V15.9248ZM16.1728 14.9142C16.6784 14.3002 16.8709 13.8921 17.2256 13.8921C17.5803 13.8921 16.5517 15.495 16.2089 15.5182C15.866 15.5415 15.665 15.1117 14.8374 15.1117C14.0099 15.1117 14.0232 15.409 13.5015 15.5995C13.2314 15.5844 13.1675 15.5111 13.2296 15.2511C13.509 14.8133 13.7928 14.6281 14.7901 14.5309C15.3238 14.5121 15.6283 14.6419 16.1728 14.9142Z" fill="#1D1E1E"/>
<path fill-rule="evenodd" clip-rule="evenodd" d="M7.79113 16.0873C8.78306 15.2105 10.1557 15.4369 11.0542 15.9247V15.1116L11.6441 14.3799C9.35105 14.3172 8.00394 13.9385 6.0532 13.2067C6.29185 14.3638 6.46982 14.9858 7.06995 15.9247L7.82723 16.157C7.8153 16.134 7.80327 16.1107 7.79113 16.0873ZM7.82723 14.9142C7.32157 14.3001 7.12906 13.892 6.77438 13.892C6.4197 13.892 7.44828 15.495 7.79113 15.5182C8.13399 15.5414 8.33498 15.1116 9.16256 15.1116C9.99015 15.1116 9.9768 15.409 10.4985 15.5995C10.7686 15.5844 10.8325 15.5111 10.7704 15.251C10.491 14.8133 10.2072 14.628 9.20985 14.5309C8.67617 14.512 8.37174 14.6418 7.82723 14.9142Z" fill="#1D1E1E"/>
<path d="M12 17.5857L13.1823 16.8075L13.5724 17.5858C14.434 17.1822 14.8698 16.9116 15.6177 16.401C15.0997 17.7193 14.7258 18.3997 13.7025 19.3629L12.8276 18.4105L12 18.9099L11.1724 18.4104L10.2975 19.3629C9.27421 18.3996 8.90027 17.7192 8.38227 16.401C9.13019 16.9115 9.56605 17.1821 10.4276 17.5857L10.8177 16.8075L12 17.5857Z" fill="#1D1E1E"/>
<path fill-rule="evenodd" clip-rule="evenodd" d="M16.2089 16.0874C15.2169 15.2106 13.8443 15.4369 12.9458 15.9248V15.1117L12.3559 14.3799C12.2169 14.2075 12.0946 13.9384 12 13.9385C11.9172 13.9385 11.7831 14.2075 11.6441 14.3799L11.0542 15.1116V15.9247C10.1557 15.4369 8.78306 15.2105 7.79113 16.0873C7.80327 16.1107 7.8153 16.134 7.82723 16.157C8.52375 17.5034 8.87763 18.267 10.0138 19.7462C10.4467 19.8503 11.0171 19.8092 12 19.7462C12.9829 19.8092 13.5533 19.8504 13.9862 19.7462C15.1224 18.2671 15.4763 17.5035 16.1728 16.1571C16.1847 16.134 16.1967 16.1108 16.2089 16.0874ZM13.1823 16.8075L12 17.5857L10.8177 16.8075L10.4276 17.5857C9.56605 17.1821 9.13019 16.9115 8.38227 16.401C8.90027 17.7192 9.27421 18.3996 10.2975 19.3629L11.1724 18.4104L12 18.9099L12.8276 18.4105L13.7025 19.3629C14.7258 18.3997 15.0997 17.7193 15.6177 16.401C14.8698 16.9116 14.434 17.1822 13.5724 17.5858L13.1823 16.8075Z" fill="#FF9C45"/>
<path d="M12 6.24909L13.064 9.18784L14.9557 9.79184L13.064 10.4771L12 13.2067L10.936 10.4771L9.04434 9.79178L10.936 9.18778L12 6.24909Z" fill="white"/>
<path fill-rule="evenodd" clip-rule="evenodd" d="M12 13.9385C12.0946 13.9384 12.2169 14.2075 12.3559 14.3799C14.6489 14.3172 15.9961 13.9385 17.9468 13.2068C17.7082 14.3638 17.5302 14.9859 16.93 15.9248C17.9151 15.6766 18.7895 15.3315 19.5582 14.9142C22.3508 13.3987 23.7497 10.9315 24 8.7C23.2111 8.56415 22.4094 8.59974 20.1931 8.90908C20.8381 7.47612 21.3805 6.74004 21.1862 4.99468C19.4954 5.09249 18.2681 5.66944 15.3813 8.00307C14.7035 4.23828 13.9626 2.20687 12 0C10.5458 1.30093 9.30259 4.31515 8.61872 8.00301C5.73189 5.66938 4.50463 5.09243 2.81379 4.99462C2.61954 6.73998 3.16195 7.47606 3.8069 8.90902C1.59058 8.59968 0.788907 8.56409 0 8.69994C0.250307 10.9314 1.64919 13.3986 4.44176 14.9142C5.2105 15.3314 6.08486 15.6765 7.06995 15.9247C6.46982 14.9858 6.29185 14.3638 6.0532 13.2067C8.00394 13.9385 9.35105 14.3172 11.6441 14.3799C11.7831 14.2075 11.9172 13.9385 12 13.9385ZM13.064 9.18784L12 6.24909L10.936 9.18778L9.04434 9.79178L10.936 10.4771L12 13.2067L13.064 10.4771L14.9557 9.79184L13.064 9.18784Z" fill="#0A918A"/>
<path d="M8.9734 22.046C8.74877 21.7092 6.90443 22.7662 6.98719 23.0217C7.06995 23.2773 9.19803 22.3829 8.9734 22.046Z" fill="#3C9539"/>
<path fill-rule="evenodd" clip-rule="evenodd" d="M16.1728 16.1571C15.4763 17.5035 15.1224 18.2671 13.9862 19.7462C14.6365 22.1971 13.2269 22.1775 13.3005 22.7662C14.1872 23.4864 16.0416 24.1947 18.7862 23.951C18.6475 23.2769 18.3787 22.8922 17.6394 22.1971C19.7202 22.1971 21.1139 21.9346 21.6709 21.0936C21.0569 20.2063 20.3414 19.7193 17.864 18.9099C21.2413 18.3089 22.4263 17.4166 24 15.4021C22.6629 14.942 21.7073 14.824 19.5582 14.9142C18.7895 15.3315 17.9151 15.6766 16.93 15.9248L16.1728 16.1571ZM16.268 17.3883C16.0906 16.8772 20.6424 15.8435 20.7606 16.0874C20.8788 16.3313 16.4453 17.8994 16.268 17.3883ZM15.4995 20.2457C15.535 19.9437 19.2591 20.3502 19.2591 20.78C19.2591 21.2098 15.464 20.5477 15.4995 20.2457ZM15.0266 22.0461C15.2512 21.7092 17.0956 22.7662 17.0128 23.0218C16.93 23.2773 14.802 22.3829 15.0266 22.0461Z" fill="#3C9539"/>
<path fill-rule="evenodd" clip-rule="evenodd" d="M10.0138 19.7462C8.87763 18.267 8.52375 17.5034 7.82723 16.157L7.06995 15.9247C6.08486 15.6765 5.2105 15.3314 4.44176 14.9142C2.29274 14.8239 1.33711 14.942 0 15.402C1.57374 17.4166 2.75873 18.3088 6.13596 18.9099C3.6586 19.7192 2.94312 20.2062 2.32906 21.0936C2.88607 21.9345 4.2798 22.197 6.36059 22.197C5.62134 22.8922 5.35248 23.2769 5.21379 23.951C7.9584 24.1947 9.81281 23.4863 10.6995 22.7662C10.7731 22.1774 9.36355 22.197 10.0138 19.7462ZM7.73202 17.3883C7.90936 16.8772 3.35764 15.8434 3.23941 16.0873C3.12118 16.3313 7.55468 17.8993 7.73202 17.3883ZM8.50049 20.2456C8.46502 19.9436 4.74089 20.3502 4.74089 20.78C4.74089 21.2097 8.53596 20.5477 8.50049 20.2456ZM8.9734 22.046C8.74877 21.7092 6.90443 22.7662 6.98719 23.0217C7.06995 23.2773 9.19803 22.3829 8.9734 22.046Z" fill="#3C9539"/>
<path d="M17.2256 13.8921C16.8709 13.8921 16.6784 14.3002 16.1728 14.9142C15.6283 14.6419 15.3238 14.5121 14.7901 14.5309C13.7928 14.6281 13.509 14.8133 13.2296 15.2511C13.1675 15.5111 13.2314 15.5844 13.5015 15.5995C14.0232 15.409 14.0099 15.1117 14.8374 15.1117C15.665 15.1117 15.866 15.5415 16.2089 15.5182C16.5517 15.495 17.5803 13.8921 17.2256 13.8921Z" fill="#F5F5F5"/>
<path fill-rule="evenodd" clip-rule="evenodd" d="M12.9458 15.9248C13.8443 15.4369 15.2169 15.2106 16.2089 16.0874C16.1967 16.1108 16.1847 16.134 16.1728 16.1571L16.93 15.9248C17.5302 14.9859 17.7082 14.3638 17.9468 13.2068C15.9961 13.9385 14.6489 14.3172 12.3559 14.3799L12.9458 15.1117V15.9248ZM16.1728 14.9142C16.6784 14.3002 16.8709 13.8921 17.2256 13.8921C17.5803 13.8921 16.5517 15.495 16.2089 15.5182C15.866 15.5415 15.665 15.1117 14.8374 15.1117C14.0099 15.1117 14.0232 15.409 13.5015 15.5995C13.2314 15.5844 13.1675 15.5111 13.2296 15.2511C13.509 14.8133 13.7928 14.6281 14.7901 14.5309C15.3238 14.5121 15.6283 14.6419 16.1728 14.9142Z" fill="#1D1E1E"/>
<path fill-rule="evenodd" clip-rule="evenodd" d="M7.79113 16.0873C8.78306 15.2105 10.1557 15.4369 11.0542 15.9247V15.1116L11.6441 14.3799C9.35105 14.3172 8.00394 13.9385 6.0532 13.2067C6.29185 14.3638 6.46982 14.9858 7.06995 15.9247L7.82723 16.157C7.8153 16.134 7.80327 16.1107 7.79113 16.0873ZM7.82723 14.9142C7.32157 14.3001 7.12906 13.892 6.77438 13.892C6.4197 13.892 7.44828 15.495 7.79113 15.5182C8.13399 15.5414 8.33498 15.1116 9.16256 15.1116C9.99015 15.1116 9.9768 15.409 10.4985 15.5995C10.7686 15.5844 10.8325 15.5111 10.7704 15.251C10.491 14.8133 10.2072 14.628 9.20985 14.5309C8.67617 14.512 8.37174 14.6418 7.82723 14.9142Z" fill="#1D1E1E"/>
<path d="M12 17.5857L13.1823 16.8075L13.5724 17.5858C14.434 17.1822 14.8698 16.9116 15.6177 16.401C15.0997 17.7193 14.7258 18.3997 13.7025 19.3629L12.8276 18.4105L12 18.9099L11.1724 18.4104L10.2975 19.3629C9.27421 18.3996 8.90027 17.7192 8.38227 16.401C9.13019 16.9115 9.56605 17.1821 10.4276 17.5857L10.8177 16.8075L12 17.5857Z" fill="#1D1E1E"/>
<path fill-rule="evenodd" clip-rule="evenodd" d="M16.2089 16.0874C15.2169 15.2106 13.8443 15.4369 12.9458 15.9248V15.1117L12.3559 14.3799C12.2169 14.2075 12.0946 13.9384 12 13.9385C11.9172 13.9385 11.7831 14.2075 11.6441 14.3799L11.0542 15.1116V15.9247C10.1557 15.4369 8.78306 15.2105 7.79113 16.0873C7.80327 16.1107 7.8153 16.134 7.82723 16.157C8.52375 17.5034 8.87763 18.267 10.0138 19.7462C10.4467 19.8503 11.0171 19.8092 12 19.7462C12.9829 19.8092 13.5533 19.8504 13.9862 19.7462C15.1224 18.2671 15.4763 17.5035 16.1728 16.1571C16.1847 16.134 16.1967 16.1108 16.2089 16.0874ZM13.1823 16.8075L12 17.5857L10.8177 16.8075L10.4276 17.5857C9.56605 17.1821 9.13019 16.9115 8.38227 16.401C8.90027 17.7192 9.27421 18.3996 10.2975 19.3629L11.1724 18.4104L12 18.9099L12.8276 18.4105L13.7025 19.3629C14.7258 18.3997 15.0997 17.7193 15.6177 16.401C14.8698 16.9116 14.434 17.1822 13.5724 17.5858L13.1823 16.8075Z" fill="#FF9C45"/>
<path d="M12 6.24909L13.064 9.18784L14.9557 9.79184L13.064 10.4771L12 13.2067L10.936 10.4771L9.04434 9.79178L10.936 9.18778L12 6.24909Z" fill="white"/>
<path fill-rule="evenodd" clip-rule="evenodd" d="M12 13.9385C12.0946 13.9384 12.2169 14.2075 12.3559 14.3799C14.6489 14.3172 15.9961 13.9385 17.9468 13.2068C17.7082 14.3638 17.5302 14.9859 16.93 15.9248C17.9151 15.6766 18.7895 15.3315 19.5582 14.9142C22.3508 13.3987 23.7497 10.9315 24 8.7C23.2111 8.56415 22.4094 8.59974 20.1931 8.90908C20.8381 7.47612 21.3805 6.74004 21.1862 4.99468C19.4954 5.09249 18.2681 5.66944 15.3813 8.00307C14.7035 4.23828 13.9626 2.20687 12 0C10.5458 1.30093 9.30259 4.31515 8.61872 8.00301C5.73189 5.66938 4.50463 5.09243 2.81379 4.99462C2.61954 6.73998 3.16195 7.47606 3.8069 8.90902C1.59058 8.59968 0.788907 8.56409 0 8.69994C0.250307 10.9314 1.64919 13.3986 4.44176 14.9142C5.2105 15.3314 6.08486 15.6765 7.06995 15.9247C6.46982 14.9858 6.29185 14.3638 6.0532 13.2067C8.00394 13.9385 9.35105 14.3172 11.6441 14.3799C11.7831 14.2075 11.9172 13.9385 12 13.9385ZM13.064 9.18784L12 6.24909L10.936 9.18778L9.04434 9.79178L10.936 10.4771L12 13.2067L13.064 10.4771L14.9557 9.79184L13.064 9.18784Z" fill="#0A918A"/>
<path d="M8.9734 22.046C8.74877 21.7092 6.90443 22.7662 6.98719 23.0217C7.06995 23.2773 9.19803 22.3829 8.9734 22.046Z" fill="white"/>
</svg>
