<svg width="24" height="24" viewBox="0 0 24 24" fill="none" xmlns="http://www.w3.org/2000/svg">
<g style="mix-blend-mode:luminosity">
<path d="M16.4181 12.6095L23.9822 12.6597L23.9994 11.877L23.9902 11.5102L23.966 11.0903H16.4181C16.4599 11.3372 16.4817 11.5909 16.4817 11.8498C16.4817 12.1087 16.4599 12.3625 16.4181 12.6095Z" fill="#333333"/>
<path fill-rule="evenodd" clip-rule="evenodd" d="M7.56595 12.6096C7.88359 14.7861 9.75189 16.4571 12.0092 16.4571C14.2313 16.4571 16.0582 14.7364 16.4181 12.6095C16.4599 12.3625 16.4817 12.1087 16.4817 11.8498C16.4817 11.5909 16.4599 11.3372 16.4181 11.0903C16.0584 8.96327 14.2314 7.4449 12.0092 7.4449C9.8223 7.4449 8.00052 9.01334 7.60017 11.0903C7.54646 11.3689 7.51834 11.6567 7.51834 11.951C7.51834 12.1747 7.53458 12.3946 7.56595 12.6096ZM12.0092 15.4445C13.932 15.4445 15.4908 13.8804 15.4908 11.951C15.4908 10.0216 13.932 8.45751 12.0092 8.45751C10.0863 8.45751 8.52751 10.0216 8.52751 11.951C8.52751 13.8804 10.0863 15.4445 12.0092 15.4445Z" fill="#333333"/>
<path d="M0.033962 11.0903L0.0102805 11.4987L0.000388632 11.902L0.0032803 12.2834L0.0178249 12.6597L7.56595 12.6096C7.53458 12.3946 7.51834 12.1747 7.51834 11.951C7.51834 11.6567 7.54646 11.3689 7.60017 11.0903H0.033962Z" fill="#333333"/>
<path d="M14.4816 11.951C14.4816 13.3212 13.3747 14.4319 12.0092 14.4319C10.6436 14.4319 9.53668 13.3212 9.53668 11.951C9.53668 10.5809 10.6436 9.47012 12.0092 9.47012C13.3747 9.47012 14.4816 10.5809 14.4816 11.951Z" fill="#B7BFC6"/>
<path fill-rule="evenodd" clip-rule="evenodd" d="M15.4908 11.951C15.4908 13.8804 13.932 15.4445 12.0092 15.4445C10.0863 15.4445 8.52751 13.8804 8.52751 11.951C8.52751 10.0216 10.0863 8.45751 12.0092 8.45751C13.932 8.45751 15.4908 10.0216 15.4908 11.951ZM12.0092 14.4319C13.3747 14.4319 14.4816 13.3212 14.4816 11.951C14.4816 10.5809 13.3747 9.47012 12.0092 9.47012C10.6436 9.47012 9.53668 10.5809 9.53668 11.951C9.53668 13.3212 10.6436 14.4319 12.0092 14.4319Z" fill="#EFF3F4"/>
<path d="M16.4181 12.6095C16.0582 14.7364 14.2313 16.4571 12.0092 16.4571C9.75189 16.4571 7.88359 14.7861 7.56595 12.6096L0.0178249 12.6597C0.360295 18.9803 5.59394 24 12 24C18.4061 24 23.6397 18.9803 23.9822 12.6597L16.4181 12.6095Z" fill="#EFF3F4"/>
<path d="M12.0092 7.4449C14.2314 7.4449 16.0584 8.96327 16.4181 11.0903H23.966C23.5011 4.88784 18.3214 0 12 0C5.67862 0 0.498869 4.88784 0.033962 11.0903H7.60017C8.00052 9.01334 9.8223 7.4449 12.0092 7.4449Z" fill="#ED263A"/>
</g>
</svg>
