<svg width="166" height="128" viewBox="0 0 166 128" fill="none" xmlns="http://www.w3.org/2000/svg">
<path fill-rule="evenodd" clip-rule="evenodd" d="M1.00043 64.5006C0.8632 36.5066 33.2494 14.0001 82.1032 14C130.957 13.9999 165.676 35.5442 164.99 64.5006C164.304 93.4569 125.742 114.314 82.1032 114.041C38.4642 113.767 1.13767 92.4946 1.00043 64.5006ZM82.1032 26.0753C47.5213 26.0753 14.0602 43.1569 13.2139 64.5006C12.3676 85.8442 53.0105 102.512 82.1032 101.963C111.196 101.414 153.737 88.2404 153.325 64.5006C152.914 40.7607 116.685 26.0753 82.1032 26.0753Z" fill="#050505"/>
<path fill-rule="evenodd" clip-rule="evenodd" d="M31.0538 59.1477C29.9559 42.6802 58.4997 31.9762 82.1032 31.7018C105.707 31.4273 135.348 39.5239 135.348 59.1477C135.348 78.7716 106.667 85.9075 82.1032 86.182C57.5391 86.4564 32.1516 75.6153 31.0538 59.1477ZM82.1032 44.3269C60.6954 44.3269 45.1884 51.6001 43.9533 59.1477C42.7183 66.6954 66.0643 74.0594 82.1032 74.3802C98.9915 74.7181 122.86 67.9304 122.586 59.1477C122.312 50.365 103.511 44.3269 82.1032 44.3269Z" fill="#050505"/>
<path d="M64.1261 57.7754C63.7144 53.5213 70.1642 48.7183 82.1032 48.7183C94.0422 48.7183 102.688 51.7373 102.413 57.7754C102.139 63.8135 89.1019 65.5975 82.1032 65.5975C75.1045 65.5975 64.5378 62.0295 64.1261 57.7754Z" fill="#050505"/>
<path fill-rule="evenodd" clip-rule="evenodd" d="M1.00043 64.5006C0.8632 36.5066 33.2494 14.0001 82.1032 14C130.957 13.9999 165.676 35.5442 164.99 64.5006C164.304 93.4569 125.742 114.314 82.1032 114.041C38.4642 113.767 1.13767 92.4946 1.00043 64.5006ZM82.1032 26.0753C47.5213 26.0753 14.0602 43.1569 13.2139 64.5006C12.3676 85.8442 53.0105 102.512 82.1032 101.963C111.196 101.414 153.737 88.2404 153.325 64.5006C152.914 40.7607 116.685 26.0753 82.1032 26.0753Z" stroke="black" stroke-width="0.0521248"/>
<path fill-rule="evenodd" clip-rule="evenodd" d="M31.0538 59.1477C29.9559 42.6802 58.4997 31.9762 82.1032 31.7018C105.707 31.4273 135.348 39.5239 135.348 59.1477C135.348 78.7716 106.667 85.9075 82.1032 86.182C57.5391 86.4564 32.1516 75.6153 31.0538 59.1477ZM82.1032 44.3269C60.6954 44.3269 45.1884 51.6001 43.9533 59.1477C42.7183 66.6954 66.0643 74.0594 82.1032 74.3802C98.9915 74.7181 122.86 67.9304 122.586 59.1477C122.312 50.365 103.511 44.3269 82.1032 44.3269Z" stroke="black" stroke-width="0.0521248"/>
<path d="M64.1261 57.7754C63.7144 53.5213 70.1642 48.7183 82.1032 48.7183C94.0422 48.7183 102.688 51.7373 102.413 57.7754C102.139 63.8135 89.1019 65.5975 82.1032 65.5975C75.1045 65.5975 64.5378 62.0295 64.1261 57.7754Z" stroke="black" stroke-width="0.0521248"/>
</svg>
