<svg width="166" height="128" viewBox="0 0 166 128" fill="none" xmlns="http://www.w3.org/2000/svg">
<path fill-rule="evenodd" clip-rule="evenodd" d="M1.0022 64.374C1.38007 30.7061 46.7226 15.0058 81.4854 15C116.248 14.9942 165.747 28.4715 164.991 64.374C164.236 100.277 113.981 113 81.4854 113C48.9901 113 0.624327 98.0419 1.0022 64.374ZM11.9603 62.872C16.1167 88.3071 92.4435 95.788 96.222 76.7117C95.727 73.1705 94.7106 70.727 87.1535 69.6048C79.5964 68.4827 75.44 68.8567 68.2607 65.4903C61.0815 62.1239 59.1922 51.6506 59.1922 51.6506C62.1597 29.6023 89.0313 25.5318 126.073 33.6964C82.6192 12.3758 11.9603 34.4387 11.9603 62.872Z" fill="black" stroke="black"/>
</svg>
