<svg width="24" height="24" viewBox="0 0 24 24" fill="none" xmlns="http://www.w3.org/2000/svg">
<path fill-rule="evenodd" clip-rule="evenodd" d="M16.1728 16.1571C15.4763 17.5035 15.1224 18.2671 13.9862 19.7462C14.6365 22.1971 13.2269 22.1775 13.3005 22.7662C14.1872 23.4864 16.0416 24.1947 18.7862 23.951C18.6475 23.2769 18.3787 22.8922 17.6394 22.1971C19.7202 22.1971 21.1139 21.9346 21.6709 21.0936C21.0569 20.2063 20.3414 19.7193 17.864 18.9099C21.2413 18.3089 22.4263 17.4166 24 15.4021C22.6629 14.942 21.7073 14.824 19.5582 14.9142C18.7895 15.3315 17.9151 15.6766 16.93 15.9248L16.1728 16.1571Z" fill="#3C9539"/>
<path fill-rule="evenodd" clip-rule="evenodd" d="M10.0138 19.7462C8.87763 18.267 8.52375 17.5034 7.82723 16.157L7.06995 15.9247C6.08486 15.6765 5.2105 15.3314 4.44176 14.9142C2.29274 14.8239 1.33711 14.942 0 15.402C1.57374 17.4166 2.75873 18.3088 6.13596 18.9099C3.6586 19.7192 2.94312 20.2062 2.32906 21.0936C2.88607 21.9345 4.2798 22.197 6.36059 22.197C5.62134 22.8922 5.35248 23.2769 5.21379 23.951C7.9584 24.1947 9.81281 23.4864 10.6995 22.7662C10.7731 22.1774 9.36355 22.197 10.0138 19.7462Z" fill="#3C9539"/>
<path fill-rule="evenodd" clip-rule="evenodd" d="M12.9458 15.9248C13.8443 15.4369 15.2169 15.2106 16.2089 16.0874C16.1967 16.1108 16.1847 16.134 16.1728 16.1571L16.93 15.9248C17.5302 14.9859 17.7082 14.3638 17.9468 13.2068C15.9961 13.9385 14.6489 14.3172 12.3559 14.3799L12.9458 15.1117V15.9248Z" fill="#1D1E1E"/>
<path fill-rule="evenodd" clip-rule="evenodd" d="M7.79113 16.0873C8.78306 15.2105 10.1557 15.4369 11.0542 15.9247V15.1116L11.6442 14.3799C9.35105 14.3172 8.00394 13.9385 6.0532 13.2067C6.29185 14.3638 6.46982 14.9858 7.06995 15.9247L7.82723 16.157C7.8153 16.134 7.80327 16.1107 7.79113 16.0873Z" fill="#1D1E1E"/>
<path d="M12 17.5857L13.1823 16.8076L13.5724 17.5858C14.434 17.1822 14.8698 16.9116 15.6177 16.401C15.0997 17.7193 14.7258 18.3997 13.7025 19.3629L12.8276 18.4105L12 18.9099L11.1724 18.4104L10.2975 19.3629C9.27421 18.3996 8.90027 17.7192 8.38227 16.401C9.13019 16.9115 9.56605 17.1821 10.4276 17.5857L10.8177 16.8075L12 17.5857Z" fill="#1D1E1E"/>
<path fill-rule="evenodd" clip-rule="evenodd" d="M16.2089 16.0874C15.2169 15.2106 13.8443 15.4369 12.9458 15.9248V15.1117L12.3559 14.3799C12.2169 14.2075 12.0946 13.9384 12 13.9385C11.9172 13.9385 11.7831 14.2075 11.6442 14.3799L11.0542 15.1116V15.9247C10.1557 15.4369 8.78306 15.2105 7.79113 16.0873C7.80327 16.1107 7.8153 16.134 7.82723 16.157C8.52375 17.5034 8.87763 18.267 10.0138 19.7462C10.4467 19.8503 11.0171 19.8092 12 19.7462C12.9829 19.8092 13.5533 19.8504 13.9862 19.7462C15.1224 18.2671 15.4763 17.5035 16.1728 16.1571C16.1847 16.134 16.1967 16.1108 16.2089 16.0874ZM13.1823 16.8076L12 17.5857L10.8177 16.8075L10.4276 17.5857C9.56605 17.1821 9.13019 16.9115 8.38227 16.401C8.90027 17.7192 9.27421 18.3996 10.2975 19.3629L11.1724 18.4104L12 18.9099L12.8276 18.4105L13.7025 19.3629C14.7258 18.3997 15.0997 17.7193 15.6177 16.401C14.8698 16.9116 14.434 17.1822 13.5724 17.5858L13.1823 16.8076Z" fill="#FF9C45"/>
<path d="M12 6.24909L13.064 9.18784L14.9557 9.79184L13.064 10.4772L12 13.2067L10.936 10.4771L9.04434 9.79179L10.936 9.18779L12 6.24909Z" fill="white"/>
<path fill-rule="evenodd" clip-rule="evenodd" d="M12 13.9385C12.0946 13.9384 12.2169 14.2075 12.3559 14.3799C14.6489 14.3172 15.9961 13.9385 17.9468 13.2068C17.7082 14.3638 17.5302 14.9859 16.93 15.9248C17.9151 15.6766 18.7895 15.3315 19.5582 14.9142C22.3508 13.3987 23.7497 10.9315 24 8.7C23.2111 8.56415 22.4094 8.59974 20.1931 8.90908C20.8381 7.47612 21.3805 6.74004 21.1862 4.99468C19.4954 5.09249 18.2681 5.66944 15.3813 8.00307C14.7035 4.23829 13.9626 2.20687 12 0C10.5458 1.30093 9.30259 4.31515 8.61872 8.00301C5.73189 5.66938 4.50463 5.09243 2.81379 4.99462C2.61954 6.73999 3.16195 7.47606 3.8069 8.90902C1.59058 8.59968 0.788907 8.56409 0 8.69994C0.250307 10.9314 1.64919 13.3986 4.44176 14.9142C5.2105 15.3314 6.08486 15.6765 7.06995 15.9247C6.46982 14.9858 6.29185 14.3638 6.0532 13.2067C8.00394 13.9385 9.35105 14.3172 11.6442 14.3799C11.7831 14.2075 11.9172 13.9385 12 13.9385ZM13.064 9.18784L12 6.24909L10.936 9.18779L9.04434 9.79179L10.936 10.4771L12 13.2067L13.064 10.4772L14.9557 9.79184L13.064 9.18784Z" fill="#0A918A"/>
<path fill-rule="evenodd" clip-rule="evenodd" d="M16.1728 16.1571C15.4763 17.5035 15.1224 18.2671 13.9862 19.7462C14.6365 22.1971 13.2269 22.1775 13.3005 22.7662C14.1872 23.4864 16.0416 24.1947 18.7862 23.951C18.6475 23.2769 18.3787 22.8922 17.6394 22.1971C19.7202 22.1971 21.1139 21.9346 21.6709 21.0936C21.0569 20.2063 20.3414 19.7193 17.864 18.9099C21.2413 18.3089 22.4263 17.4166 24 15.4021C22.6629 14.942 21.7073 14.824 19.5582 14.9142C18.7895 15.3315 17.9151 15.6766 16.93 15.9248L16.1728 16.1571Z" fill="#3C9539"/>
<path fill-rule="evenodd" clip-rule="evenodd" d="M10.0138 19.7462C8.87763 18.267 8.52375 17.5034 7.82723 16.157L7.06995 15.9247C6.08486 15.6765 5.2105 15.3314 4.44176 14.9142C2.29274 14.8239 1.33711 14.942 0 15.402C1.57374 17.4166 2.75873 18.3088 6.13596 18.9099C3.6586 19.7192 2.94312 20.2062 2.32906 21.0936C2.88607 21.9345 4.2798 22.197 6.36059 22.197C5.62134 22.8922 5.35248 23.2769 5.21379 23.951C7.9584 24.1947 9.81281 23.4864 10.6995 22.7662C10.7731 22.1774 9.36355 22.197 10.0138 19.7462Z" fill="#3C9539"/>
<path fill-rule="evenodd" clip-rule="evenodd" d="M7.79113 16.0873C8.78306 15.2105 10.1557 15.4369 11.0542 15.9247V15.1116L11.6442 14.3799C9.35105 14.3172 8.00394 13.9385 6.0532 13.2067C6.29185 14.3638 6.46982 14.9858 7.06995 15.9247L7.82723 16.157C7.8153 16.134 7.80327 16.1107 7.79113 16.0873Z" fill="#1D1E1E"/>
<path d="M12 17.5857L13.1823 16.8076L13.5724 17.5858C14.434 17.1822 14.8698 16.9116 15.6177 16.401C15.0997 17.7193 14.7258 18.3997 13.7025 19.3629L12.8276 18.4105L12 18.9099L11.1724 18.4104L10.2975 19.3629C9.27421 18.3996 8.90027 17.7192 8.38227 16.401C9.13019 16.9115 9.56605 17.1821 10.4276 17.5857L10.8177 16.8075L12 17.5857Z" fill="#1D1E1E"/>
<path fill-rule="evenodd" clip-rule="evenodd" d="M16.2089 16.0874C15.2169 15.2106 13.8443 15.4369 12.9458 15.9248V15.1117L12.3559 14.3799C12.2169 14.2075 12.0946 13.9384 12 13.9385C11.9172 13.9385 11.7831 14.2075 11.6442 14.3799L11.0542 15.1116V15.9247C10.1557 15.4369 8.78306 15.2105 7.79113 16.0873C7.80327 16.1107 7.8153 16.134 7.82723 16.157C8.52375 17.5034 8.87763 18.267 10.0138 19.7462C10.4467 19.8503 11.0171 19.8092 12 19.7462C12.9829 19.8092 13.5533 19.8504 13.9862 19.7462C15.1224 18.2671 15.4763 17.5035 16.1728 16.1571C16.1847 16.134 16.1967 16.1108 16.2089 16.0874ZM13.1823 16.8076L12 17.5857L10.8177 16.8075L10.4276 17.5857C9.56605 17.1821 9.13019 16.9115 8.38227 16.401C8.90027 17.7192 9.27421 18.3996 10.2975 19.3629L11.1724 18.4104L12 18.9099L12.8276 18.4105L13.7025 19.3629C14.7258 18.3997 15.0997 17.7193 15.6177 16.401C14.8698 16.9116 14.434 17.1822 13.5724 17.5858L13.1823 16.8076Z" fill="#FF9C45"/>
<path d="M12 6.24909L13.064 9.18784L14.9557 9.79184L13.064 10.4772L12 13.2067L10.936 10.4771L9.04434 9.79179L10.936 9.18779L12 6.24909Z" fill="white"/>
<path fill-rule="evenodd" clip-rule="evenodd" d="M12 13.9385C12.0946 13.9384 12.2169 14.2075 12.3559 14.3799C14.6489 14.3172 15.9961 13.9385 17.9468 13.2068C17.7082 14.3638 17.5302 14.9859 16.93 15.9248C17.9151 15.6766 18.7895 15.3315 19.5582 14.9142C22.3508 13.3987 23.7497 10.9315 24 8.7C23.2111 8.56415 22.4094 8.59974 20.1931 8.90908C20.8381 7.47612 21.3805 6.74004 21.1862 4.99468C19.4954 5.09249 18.2681 5.66944 15.3813 8.00307C14.7035 4.23829 13.9626 2.20687 12 0C10.5458 1.30093 9.30259 4.31515 8.61872 8.00301C5.73189 5.66938 4.50463 5.09243 2.81379 4.99462C2.61954 6.73999 3.16195 7.47606 3.8069 8.90902C1.59058 8.59968 0.788907 8.56409 0 8.69994C0.250307 10.9314 1.64919 13.3986 4.44176 14.9142C5.2105 15.3314 6.08486 15.6765 7.06995 15.9247C6.46982 14.9858 6.29185 14.3638 6.0532 13.2067C8.00394 13.9385 9.35105 14.3172 11.6442 14.3799C11.7831 14.2075 11.9172 13.9385 12 13.9385ZM13.064 9.18784L12 6.24909L10.936 9.18779L9.04434 9.79179L10.936 10.4771L12 13.2067L13.064 10.4772L14.9557 9.79184L13.064 9.18784Z" fill="#0A918A"/>
</svg>
