<svg width="45" height="53" viewBox="0 0 45 53" fill="none" xmlns="http://www.w3.org/2000/svg">
<path d="M22.5 1.85344e-06V21.3377L24.0247 22.2477L24.7903 20.1945L24.0247 19.7586L23.0769 15.3048L26.9656 14.3609L29.5055 7.54944L26.9094 6.07334L22.5 1.85344e-06Z" fill="#F3D23B"/>
<path d="M35.0275 10.6891L30.9684 8.38121L29.5055 7.54944L26.9656 14.3609L28.3572 14.0231L30.0824 13.6043L30.9269 16.5524L35.8929 10.6891H35.0275Z" fill="#FF9C54"/>
<path d="M26.3736 23.6497L26.9094 23.9694L43.3723 14.657L45 10.6891H35.8929L30.9269 16.5524L31.8653 19.8285L32.0192 20.3659L30.2393 20.9599L27.6511 21.8235L26.8491 21.3669L25.4052 23.0717L26.3736 23.6497Z" fill="#F97176"/>
<path d="M29.0934 24.3338L32.6786 21.3377L35.3732 24.1871L40.6319 23.2406V21.3377L43.3723 14.657L26.9094 23.9694V25.7105L29.0934 25.3174V24.3338Z" fill="#CE4069"/>
<path d="M40.6319 29.5974V26.4393V23.2406L35.3732 24.1871L37.5412 26.4798L35.4052 28.703L40.6319 29.5974Z" fill="#EC8FE6"/>
<path d="M24.4368 22.4937L25.4052 23.0717L26.8491 21.3669L25.3527 20.5148L24.7903 20.1945L24.0247 22.2477L24.4368 22.4937Z" fill="#FF9C54"/>
<path d="M26.9094 26.4595V27.249L29.0934 27.6228V26.419V25.3174L26.9094 25.7105V26.4595Z" fill="#EC8FE6"/>
<path d="M32.6786 31.5409L29.0934 28.5042V27.6228L26.9094 27.249V28.9496L43.4653 38.343L40.6319 31.5409V29.5974L35.4052 28.703L32.6786 31.5409Z" fill="#AB6AC8"/>
<path d="M26.9094 28.9496L26.3736 29.2644L25.4052 29.8335L26.8605 31.5457L27.6511 31.0955L30.3699 32.0027L32.0192 32.5531L31.8804 33.0377L30.9347 36.3393L35.7692 42.0275H45L43.4653 38.343L26.9094 28.9496Z" fill="#6E6778"/>
<path d="M22.5 21.3377V1.85344e-06L18.0906 6.07334L15.4945 7.54944L18.0344 14.3609L21.9231 15.3048L20.9753 19.7586L20.2097 20.1945L20.9753 22.2477L22.5 21.3377Z" fill="#D97746"/>
<path d="M14.0316 8.38121L9.97252 10.6891H9.10713L14.0731 16.5524L14.9176 13.6043L16.6428 14.0231L18.0344 14.3609L15.4945 7.54944L14.0316 8.38121Z" fill="#C7B78B"/>
<path d="M19.5948 23.0717L20.5632 22.4937L20.9753 22.2477L20.2097 20.1945L19.6473 20.5148L18.1509 21.3669L19.5948 23.0717Z" fill="#C7B78B"/>
<path d="M18.0906 23.9694L18.6264 23.6497L19.5948 23.0717L18.1509 21.3669L17.3489 21.8235L14.7607 20.9599L12.9808 20.3659L13.1347 19.8285L14.0731 16.5524L9.10713 10.6891H0L1.62767 14.657L18.0906 23.9694Z" fill="#90C12C"/>
<path d="M12.3214 21.3377L15.9066 24.3338V25.3174L18.0906 25.7105V23.9694L1.62767 14.657L4.36813 21.3377V23.2406L9.62682 24.1871L12.3214 21.3377Z" fill="#63BB5B"/>
<path d="M4.36813 26.4393V29.5974L9.5948 28.703L7.45878 26.4798L9.62682 24.1871L4.36813 23.2406V26.4393Z" fill="#096DC4"/>
<path d="M18.0906 27.249V26.4595V25.7105L15.9066 25.3174V26.419V27.6228L18.0906 27.249Z" fill="#096DC4"/>
<path d="M15.9066 28.5042L12.3214 31.5409L9.5948 28.703L4.36813 29.5974V31.5409L1.53475 38.343L18.0906 28.9496V27.249L15.9066 27.6228V28.5042Z" fill="#5269AC"/>
<path d="M18.6264 29.2644L18.0906 28.9496L1.53475 38.343L0 42.0275H9.23076L14.0653 36.3393L13.1196 33.0377L12.9808 32.5531L14.6301 32.0027L17.3489 31.0955L18.1395 31.5457L19.5948 29.8335L18.6264 29.2644Z" fill="#4D90D5"/>
<path d="M9.97252 42.0275L14.0316 44.3151L15.5762 45.1856L18.0906 38.5445L16.5671 38.9143L14.9176 39.3147L14.0653 36.3393L9.23076 42.0275H9.97252Z" fill="#74CEC0"/>
<path d="M20.9753 30.6448L20.5632 30.4026L19.5948 29.8335L18.1395 31.5457L19.6285 32.3935L20.3019 32.777L20.9753 30.6448Z" fill="#74CEC0"/>
<path d="M22.5 53V31.5409L20.9753 30.6448L20.3019 32.777L20.9753 33.1604L21.9231 37.6142L18.0906 38.5445L15.5762 45.1856L18.0906 46.6027L22.5 53Z" fill="#92AADE"/>
<path d="M22.5 53L26.9094 46.6027L29.4238 45.1856L26.9094 38.5445L23.0769 37.6142L24.0247 33.1604L24.6981 32.777L24.0247 30.6448L22.5 31.5409V53Z" fill="#5A8EA1"/>
<path d="M30.9684 44.3151L35.0275 42.0275H35.7692L30.9347 36.3393L30.0824 39.3147L28.4329 38.9143L26.9094 38.5445L29.4238 45.1856L30.9684 44.3151Z" fill="#9099A1"/>
<path d="M24.4368 30.4026L24.0247 30.6448L24.6981 32.777L25.3715 32.3935L26.8605 31.5457L25.4052 29.8335L24.4368 30.4026Z" fill="#9099A1"/>
<path d="M21.9231 37.6142L20.9753 33.1604L20.3019 32.777L19.6285 32.3935L18.1395 31.5457L17.3489 31.0955L14.6301 32.0027L12.9808 32.5531L13.1196 33.0377L14.0653 36.3393L14.9176 39.3147L16.5671 38.9143L18.0906 38.5445L21.9231 37.6142Z" fill="#FFFAFA"/>
<path d="M12.3214 31.5409L15.9066 28.5042V27.6228V26.419V25.3174V24.3338L12.3214 21.3377L9.62682 24.1871L7.45878 26.4798L9.5948 28.703L12.3214 31.5409Z" fill="#FFFAFA"/>
</svg>
