<svg width="24" height="24" viewBox="0 0 24 24" fill="none" xmlns="http://www.w3.org/2000/svg">
<path d="M12.0141 2.91666C8.41223 3.21413 4.99342 5.79454 3.51414 9.71666C1.54177 14.9462 3.72727 20.6645 8.43914 22.4417C13.151 24.2188 18.5584 21.3628 20.5308 16.1333C22.5032 10.9038 20.326 5.19381 15.6141 3.41666C14.4362 2.97238 13.2148 2.81751 12.0141 2.91666ZM12.1808 10.7667C12.3607 10.8345 12.5238 11.0623 12.5808 11.4833C12.6378 11.9043 12.5733 12.465 12.3558 13.0417C12.1383 13.6184 11.81 14.0965 11.4891 14.375C11.1683 14.6535 10.8941 14.7179 10.7141 14.65C10.5342 14.5821 10.3711 14.3543 10.3141 13.9333C10.2571 13.5123 10.33 12.9434 10.5475 12.3667C10.765 11.79 11.085 11.3202 11.4058 11.0417C11.7266 10.7632 12.0009 10.6988 12.1808 10.7667Z" fill="#303030"/>
<path d="M12.0558 3.575C8.72224 3.85373 5.53341 6.25324 4.13914 9.95C2.2801 14.879 4.33967 20.1825 8.67247 21.8167C13.0053 23.4508 18.0468 20.829 19.9058 15.9C21.7648 10.971 19.7053 5.6675 15.3725 4.03333C14.2893 3.62479 13.167 3.48209 12.0558 3.575ZM12.0391 10.0667C12.1647 10.0671 12.2911 10.0952 12.4141 10.1417C12.9065 10.3274 13.1631 10.8302 13.2391 11.3917C13.3152 11.9531 13.2327 12.6155 12.9808 13.2833C12.7289 13.9512 12.3587 14.5119 11.9308 14.8833C11.503 15.2547 10.9731 15.4607 10.4808 15.275C9.98847 15.0893 9.73183 14.5864 9.6558 14.025C9.57978 13.4636 9.67058 12.7928 9.92247 12.125C10.1744 11.4571 10.5363 10.9047 10.9641 10.5333C11.285 10.2548 11.6623 10.0652 12.0391 10.0667Z" fill="#F7AF80"/>
<path d="M12.0543 3.575C9.38449 3.79823 6.82427 5.39582 5.18766 7.91666L10.321 11.3333C10.5125 11.0204 10.7213 10.7428 10.9627 10.5333C11.2835 10.2548 11.6609 10.0652 12.0377 10.0667C12.1633 10.0671 12.2896 10.0952 12.4127 10.1417C12.905 10.3274 13.1616 10.8302 13.2377 11.3917C13.2905 11.782 13.2334 12.2275 13.1293 12.6833H20.546C20.7295 8.84694 18.7627 5.31255 15.371 4.03333C14.2878 3.62479 13.1655 3.48209 12.0543 3.575ZM3.61266 11.9083C2.87051 16.2125 4.90918 20.3978 8.67099 21.8167C12.5766 23.2897 17.0387 21.2825 19.246 17.2667L13.021 13.125C13.0029 13.1788 12.9996 13.2294 12.9793 13.2833C12.7274 13.9512 12.3572 14.5119 11.9293 14.8833C11.5015 15.2547 10.9717 15.4607 10.4793 15.275C9.987 15.0893 9.73035 14.5864 9.65433 14.025C9.5783 13.4636 9.66911 12.7928 9.92099 12.125C9.93806 12.0797 9.96126 12.0442 9.97933 12L3.61266 11.9083Z" fill="#CFAFA7"/>
<path d="M12.0543 3.575C10.1489 3.73431 8.30707 4.60874 6.80433 6L10.346 11.2917C10.5317 10.9957 10.7315 10.734 10.9627 10.5333C11.2835 10.2548 11.6609 10.0652 12.0377 10.0667C12.1633 10.0671 12.2896 10.0952 12.4127 10.1417C12.905 10.3274 13.1616 10.8302 13.2377 11.3917C13.2725 11.6492 13.2622 11.9342 13.2293 12.225L20.5627 11.8833C20.4524 8.36495 18.525 5.22288 15.371 4.03333C14.2878 3.62479 13.1655 3.48209 12.0543 3.575ZM9.75433 12.75L3.49599 14.1333C3.66221 17.583 5.56747 20.6461 8.671 21.8167C12.3089 23.1887 16.4287 21.5334 18.7627 18.0583L12.746 13.7417C12.516 14.1963 12.249 14.6058 11.9293 14.8833C11.5015 15.2547 10.9717 15.4607 10.4793 15.275C9.987 15.0893 9.73035 14.5864 9.65433 14.025C9.6023 13.6408 9.65192 13.2007 9.75433 12.75Z" fill="#A7AFCF"/>
<path d="M12.0543 3.575C11.1909 3.64719 10.3447 3.8659 9.52933 4.20833L10.4543 11.125C10.6116 10.9009 10.7769 10.6945 10.9627 10.5333C11.2835 10.2548 11.6609 10.0652 12.0377 10.0667C12.1633 10.0671 12.2896 10.0952 12.4127 10.1417C12.905 10.3274 13.1616 10.8302 13.2377 11.3917C13.2533 11.5075 13.2356 11.643 13.2377 11.7667L20.171 9.475C19.4488 6.99655 17.7773 4.94092 15.371 4.03333C14.2878 3.62479 13.1655 3.48209 12.0543 3.575ZM9.66266 13.2167L3.87933 16.3833C4.60292 18.8579 6.26744 20.9101 8.67099 21.8167C11.6569 22.9428 14.9605 22.0118 17.346 19.7333L12.2543 14.5083C12.1475 14.636 12.046 14.7821 11.9293 14.8833C11.5015 15.2547 10.9717 15.4607 10.4793 15.275C9.987 15.0893 9.73035 14.5864 9.65433 14.025C9.6205 13.7752 9.63093 13.4999 9.66266 13.2167Z" fill="#87B7F7"/>
<path d="M12.0543 3.575C11.7774 3.59815 11.5033 3.65639 11.2293 3.70833V10.3583C11.4864 10.1905 11.7579 10.0656 12.0377 10.0667C12.1633 10.0671 12.2896 10.0952 12.4127 10.1417C12.8545 10.3083 13.0857 10.7427 13.1877 11.2333L18.8377 6.74166C17.9614 5.54414 16.8045 4.574 15.371 4.03333C14.2878 3.62479 13.1655 3.48209 12.0543 3.575ZM9.66266 14.0417L4.57099 18.1C5.46702 19.7789 6.85302 21.131 8.67099 21.8167C10.4338 22.4815 12.3023 22.4045 14.0377 21.7917L11.971 14.8333C11.9558 14.8471 11.9446 14.8701 11.9293 14.8833C11.5015 15.2547 10.9717 15.4607 10.4793 15.275C9.99261 15.0914 9.7419 14.5953 9.66266 14.0417Z" fill="#DFEFF7"/>
<path d="M12.221 3.58333V10.1C12.2853 10.1129 12.3495 10.1179 12.4127 10.1417C12.8384 10.3023 13.0621 10.7156 13.171 11.1833L17.421 5.25833C16.8054 4.76119 16.1383 4.32275 15.371 4.03333C14.342 3.64523 13.2775 3.51753 12.221 3.58333ZM9.67933 14.1L4.97099 18.8083C5.86458 20.1561 7.11354 21.2292 8.67099 21.8167C9.53324 22.1419 10.4249 22.2549 11.3127 22.2583V15.2417C11.038 15.3436 10.755 15.379 10.4793 15.275C10.0111 15.0984 9.76855 14.628 9.67933 14.1Z" fill="#F7F7F7"/>
<path d="M13.0758 8.91663C12.2671 8.58062 11.3581 8.7416 10.5723 9.23002C9.78647 9.71843 9.1034 10.5282 8.67651 11.5556C8.24962 12.5831 8.15452 13.6461 8.36282 14.5476C8.57113 15.4491 9.09843 16.2069 9.90712 16.5429C10.7158 16.8789 11.6249 16.7179 12.4107 16.2295C13.1964 15.7411 13.8827 14.9236 14.3096 13.8962C14.7365 12.8687 14.8284 11.8134 14.6201 10.9119C14.4118 10.0104 13.8845 9.25264 13.0758 8.91663ZM12.82 9.53227C13.3958 9.77153 13.7974 10.3205 13.9696 11.0657C14.1418 11.811 14.0714 12.7321 13.694 13.6404C13.3166 14.5487 12.7103 15.2562 12.0607 15.6599C11.4111 16.0637 10.7387 16.1665 10.1629 15.9272C9.58708 15.688 9.18552 15.139 9.01331 14.3938C8.8411 13.6485 8.91475 12.7197 9.29215 11.8114C9.66955 10.9031 10.2726 10.2033 10.9222 9.79954C11.5718 9.39577 12.2442 9.29301 12.82 9.53227Z" fill="#C7DFF7"/>
<path fill-rule="evenodd" clip-rule="evenodd" d="M13.4167 9.11667C13.3095 9.17487 13.1961 9.22548 13.125 9.325C13.0591 9.41725 13.0774 9.58335 13.1167 9.76667C13.5167 10.0539 13.8296 10.4734 13.9667 11.0667C14.1389 11.8119 14.0691 12.7334 13.6917 13.6417C13.3143 14.55 12.708 15.2546 12.0583 15.6583C11.5178 15.9943 10.9783 16.0628 10.475 15.9583C10.4043 16.0581 10.3518 16.1651 10.3417 16.2667C10.3315 16.3685 10.3237 16.5072 10.325 16.6583C11.0197 16.8017 11.7556 16.639 12.4083 16.2333C13.1941 15.7449 13.8814 14.9274 14.3083 13.9C14.7352 12.8726 14.825 11.8098 14.6167 10.9083C14.4406 10.1465 14.0256 9.50542 13.4167 9.11667Z" fill="#87B7F7"/>
<path d="M12.0558 3.575C8.72224 3.85373 5.53341 6.25324 4.13914 9.95C2.2801 14.879 4.33967 20.1825 8.67247 21.8167C13.0053 23.4508 18.0468 20.829 19.9058 15.9C21.7648 10.971 19.7053 5.6675 15.3725 4.03333C14.2893 3.62479 13.167 3.48209 12.0558 3.575ZM12.0725 3.825C13.1486 3.73502 14.233 3.87146 15.2808 4.26666C19.471 5.84704 21.4891 10.9918 19.6725 15.8083C17.8558 20.6251 12.9544 23.1637 8.76414 21.5833C4.57397 20.0029 2.55585 14.8582 4.37247 10.0417C5.73494 6.42925 8.84443 4.0949 12.0725 3.825Z" fill="#78788F"/>
</svg>
