<svg width="24" height="24" viewBox="0 0 24 24" fill="none" xmlns="http://www.w3.org/2000/svg">
<path d="M12 24C18.6274 24 24 18.6274 24 12C24 5.37258 18.6274 0 12 0C5.37258 0 0 5.37258 0 12C0 18.6274 5.37258 24 12 24Z" fill="#CE4069"/>
<path d="M4.29938 15.2138L5.23688 17.4994C5.56313 18.2963 6.75001 18.0619 6.75001 17.2013V10.5488C6.75001 9.68813 5.56313 9.45375 5.23688 10.2506L4.29938 12.5363C3.94688 13.395 3.94688 14.3569 4.29938 15.2138Z" fill="white"/>
<path d="M18.7538 17.2031V7.35938C18.7538 6.81562 18.3131 6.375 17.7694 6.375H17.3006C16.7569 6.375 16.3163 6.81562 16.3163 7.35938V10.5619C16.3163 10.7344 16.1756 10.875 16.0031 10.875C15.8306 10.875 15.69 10.7344 15.69 10.5619V7.35938C15.69 6.81562 15.2494 6.375 14.7056 6.375H14.2369C13.6931 6.375 13.2525 6.81562 13.2525 7.35938V10.5619C13.2525 10.7344 13.1119 10.875 12.9394 10.875C12.7669 10.875 12.6263 10.7344 12.6263 10.5619V7.35938C12.6263 6.81562 12.1856 6.375 11.6419 6.375H11.1731C10.6294 6.375 10.1888 6.81562 10.1888 7.35938V10.5619C10.1888 10.7344 10.0481 10.875 9.87562 10.875C9.70312 10.875 9.5625 10.7344 9.5625 10.5619V7.35938C9.5625 6.81562 9.12188 6.375 8.57812 6.375H8.10938C7.56562 6.375 7.125 6.81562 7.125 7.35938V17.2031C7.125 17.7469 7.56562 18.1875 8.10938 18.1875H17.7656C18.3131 18.1875 18.7538 17.7469 18.7538 17.2031Z" fill="white"/>
</svg>
