<svg width="24" height="24" viewBox="0 0 24 24" fill="none" xmlns="http://www.w3.org/2000/svg">
<path d="M12 24C18.6274 24 24 18.6274 24 12C24 5.37258 18.6274 0 12 0C5.37258 0 0 5.37258 0 12C0 18.6274 5.37258 24 12 24Z" fill="#9099A1"/>
<path d="M12 19.5C7.86375 19.5 4.5 16.1362 4.5 12C4.5 7.86375 7.86375 4.5 12 4.5C16.1362 4.5 19.5 7.86375 19.5 12C19.5 16.1362 16.1362 19.5 12 19.5ZM12 7.5C9.51937 7.5 7.5 9.51937 7.5 12C7.5 14.4806 9.51937 16.5 12 16.5C14.4806 16.5 16.5 14.4806 16.5 12C16.5 9.51937 14.4806 7.5 12 7.5Z" fill="white"/>
</svg>
