<svg width="24" height="24" viewBox="0 0 24 24" fill="none" xmlns="http://www.w3.org/2000/svg">
<path d="M12 24C18.6274 24 24 18.6274 24 12C24 5.37258 18.6274 0 12 0C5.37258 0 0 5.37258 0 12C0 18.6274 5.37258 24 12 24Z" fill="#FF9C54"/>
<path d="M16.0612 7.98937C17.985 9.35625 19.1044 11.8837 18.255 14.1787C17.4562 16.3387 15.2231 17.6887 12.9731 17.7544C14.7038 17.1394 15.2719 14.8856 14.0419 13.5225C12.8325 12.1837 10.5919 12.4781 9.765 14.0775C8.83313 15.8775 10.3087 17.6719 11.925 18.3938C13.7569 19.2113 15.8738 18.6094 17.3438 17.3437C14.8125 20.8181 9.68812 21.4294 6.87562 17.9644C4.96312 15.6075 4.91813 12.1481 6.65625 9.65625C6.23813 11.0081 6.5625 12.375 7.6875 13.125C6.5625 10.875 7.31813 9.17062 8.83875 7.66125C9.57375 6.93375 10.5094 6.65625 11.2781 6.02062C12.1238 5.32312 12.2344 4.16437 12.0713 3.14625C13.4213 3.84187 14.2669 5.325 14.1431 6.84375C11.9887 6.85312 11.2163 9.81938 13.095 10.8788C14.9269 11.91 17.0512 9.85125 16.0612 7.98937Z" fill="white"/>
</svg>
