<svg width="24" height="24" viewBox="0 0 24 24" fill="none" xmlns="http://www.w3.org/2000/svg">
<path d="M12 24C18.6274 24 24 18.6274 24 12C24 5.37258 18.6274 0 12 0C5.37258 0 0 5.37258 0 12C0 18.6274 5.37258 24 12 24Z" fill="#74CEC0"/>
<path d="M11.2744 12.0488L7.1325 14.3794L3.14062 11.9906L7.08563 9.7125L11.2744 12.0488ZM16.8656 9.61875L12.7237 11.9494L16.9106 14.2837L20.8556 12.0056L16.8656 9.61875ZM11.5219 6.60187L7.57688 4.32375L7.50562 8.97562L11.595 11.3962L11.5219 6.60187ZM16.4944 15.0244L12.405 12.6038L12.4763 17.3981L16.4212 19.6763L16.4944 15.0244ZM16.4363 8.8875V4.33125L12.3731 6.59438L12.3206 11.3456L16.4363 8.8875ZM11.6287 17.4038L11.6812 12.6525L7.56563 15.1125V19.6687L11.6287 17.4038Z" fill="white"/>
</svg>
