<svg width="24" height="24" viewBox="0 0 24 24" fill="none" xmlns="http://www.w3.org/2000/svg">
<path d="M12 24C18.6274 24 24 18.6274 24 12C24 5.37258 18.6274 0 12 0C5.37258 0 0 5.37258 0 12C0 18.6274 5.37258 24 12 24Z" fill="#AB6AC8"/>
<path d="M19.5 11.0625C19.5 7.61063 16.1419 4.81313 12 4.81313C7.85812 4.81313 4.5 7.61063 4.5 11.0625C4.5 12.9431 5.49937 14.6306 7.07812 15.7763C6.87188 16.1419 6.75 16.5844 6.75 17.0625C6.75 18.3056 7.56187 19.3125 8.56312 19.3125C9.34312 19.3125 10.0069 18.6994 10.2619 17.8425C10.485 18.6938 11.1787 19.3125 11.9981 19.3125C12.8175 19.3125 13.5112 18.6919 13.7344 17.8425C13.9894 18.6994 14.6531 19.3125 15.4331 19.3125C16.4344 19.3125 17.2462 18.3056 17.2462 17.0625C17.2462 16.5844 17.1244 16.14 16.9181 15.7763C18.5006 14.6306 19.5 12.9431 19.5 11.0625ZM12 14.8744C9.255 14.8744 6.9375 13.1288 6.9375 11.0625C6.9375 8.99625 9.255 7.25063 12 7.25063C14.745 7.25063 17.0625 8.99625 17.0625 11.0625C17.0625 13.1288 14.745 14.8744 12 14.8744Z" fill="white"/>
</svg>
