<svg width="24" height="24" viewBox="0 0 24 24" fill="none" xmlns="http://www.w3.org/2000/svg">
<path d="M12 24C18.6274 24 24 18.6274 24 12C24 5.37258 18.6274 0 12 0C5.37258 0 0 5.37258 0 12C0 18.6274 5.37258 24 12 24Z" fill="#EC8FE6"/>
<path d="M20.8125 12L16.1306 9.43875L16.7812 7.22063L14.5631 7.87125L12 3.1875L9.43876 7.86938L7.22063 7.21875L7.87125 9.43687L3.1875 12L7.86937 14.5613L7.21875 16.7794L9.43688 16.1287L12 20.8125L14.5612 16.1306L16.7794 16.7812L16.1288 14.5631L20.8125 12ZM13.26 13.26L12 15.5625L10.74 13.26L8.4375 12L10.74 10.74L12 8.4375L13.26 10.74L15.5625 12L13.26 13.26Z" fill="white"/>
</svg>
