<svg width="24" height="24" viewBox="0 0 24 24" fill="none" xmlns="http://www.w3.org/2000/svg">
<path d="M12 24C18.6274 24 24 18.6274 24 12C24 5.37258 18.6274 0 12 0C5.37258 0 0 5.37258 0 12C0 18.6274 5.37258 24 12 24Z" fill="#5269AC"/>
<path d="M18.7969 11.8125C18.7969 5.57812 11.0606 2.2875 6.57 6.61312C2.04 10.9781 5.15625 18.8363 11.4375 19.0275C14.7188 19.0312 16.2263 18.7519 18.5475 18.1575C17.8406 17.8687 17.1938 17.4637 16.6313 16.9669C17.9663 15.6562 18.7969 13.8319 18.7969 11.8125ZM8.67188 12.375C7.71375 12.375 6.9375 11.5987 6.9375 10.6406C6.9375 9.855 7.46063 9.19125 8.17688 8.97937C8.16375 9.06375 8.15625 9.14812 8.15625 9.23437C8.15625 10.1925 8.9325 10.9687 9.89063 10.9687C10.0631 10.9687 10.2281 10.9425 10.3856 10.8956C10.2619 11.7319 9.54188 12.375 8.67188 12.375ZM14.4638 12.375C13.5938 12.375 12.8738 11.7319 12.75 10.8956C12.9075 10.9425 13.0725 10.9687 13.245 10.9687C14.2031 10.9687 14.9794 10.1925 14.9794 9.23437C14.9794 9.14812 14.97 9.06187 14.9587 8.97937C15.675 9.19312 16.1981 9.855 16.1981 10.6406C16.1981 11.5987 15.4219 12.375 14.4638 12.375Z" fill="white"/>
</svg>
