<svg width="24" height="24" viewBox="0 0 24 24" fill="none" xmlns="http://www.w3.org/2000/svg">
<path d="M12 24C18.6274 24 24 18.6274 24 12C24 5.37258 18.6274 0 12 0C5.37258 0 0 5.37258 0 12C0 18.6274 5.37258 24 12 24Z" fill="#90C12C"/>
<path d="M16.6875 7.5C15.9506 9.29063 14.5294 9.77813 12.75 9.9375C11.6437 13.1869 12.8662 16.7756 15.1875 19.125C19.665 17.0081 20.4862 10.6875 16.6875 7.5Z" fill="white"/>
<path d="M13.5806 8.49562C14.4075 8.15062 15.1163 7.52812 15.5625 6.75C15.0806 6.47812 14.5481 6.28312 14.0175 6.13125L15.06 4.85625C15.2569 4.61625 15.2213 4.26187 14.9813 4.065C14.7413 3.86812 14.3869 3.90375 14.19 4.14375L12.7744 5.87437C12.2512 5.80687 11.7488 5.80687 11.2256 5.87437L9.81 4.14375C9.61312 3.90375 9.25875 3.86812 9.01875 4.065C8.77875 4.26187 8.74313 4.61625 8.94 4.85625L9.9825 6.13125C9.45188 6.28312 8.91938 6.47812 8.4375 6.75C9.45375 8.52187 11.6981 9.28125 13.5806 8.49562Z" fill="white"/>
<path d="M8.8125 9.375C7.86937 8.71687 7.46062 7.85813 7.3125 7.5C7.1175 7.66313 4.41937 10.0106 4.875 13.6875C5.33625 17.4094 8.59875 19.0238 8.8125 19.125C11.1337 16.7756 12.3562 13.1869 11.25 9.9375C10.8619 9.90375 9.65437 9.96375 8.8125 9.375Z" fill="white"/>
</svg>
