<svg width="24" height="24" viewBox="0 0 24 24" fill="none" xmlns="http://www.w3.org/2000/svg">
<path d="M12 24C18.6274 24 24 18.6274 24 12C24 5.37258 18.6274 0 12 0C5.37258 0 0 5.37258 0 12C0 18.6274 5.37258 24 12 24Z" fill="#63BB5B"/>
<path d="M18.705 4.94438C18.1969 4.49813 16.1663 4.9875 15.5888 5.05875C13.6838 5.29125 11.7675 5.65875 9.95438 6.3C8.07188 6.96563 6.5325 7.92375 5.64938 9.7875C4.53938 12.1275 4.86563 14.9794 6.4725 17.01C6.88313 16.5731 7.47188 16.1325 7.79625 15.63C8.22938 14.9606 7.99312 13.6238 8.025 12.7838C8.03437 12.5344 8.12625 9.10875 8.29312 9.0975C8.49562 9.08438 9.01688 12.4463 9.20438 13.6988C9.2325 13.8825 9.45563 13.9556 9.58875 13.8244C10.035 13.3838 10.4831 12.945 10.9331 12.5081C11.2406 12.21 11.3925 12.0938 11.4769 11.7056C11.5631 11.3044 11.4975 10.7906 11.5238 10.38C11.5388 10.1363 11.715 7.04813 11.9344 7.035C12.1388 7.02188 12.6187 9.44063 12.7912 10.3463C12.8175 10.4869 12.99 10.5413 13.0931 10.4419C14.0044 9.55875 16.8356 6.79688 16.9762 6.92063C17.1187 7.04438 14.7525 10.215 13.9969 11.2331C13.9106 11.3475 13.9875 11.5106 14.13 11.52C15.0506 11.5725 17.5106 11.73 17.5238 11.9344C17.5388 12.1519 14.4825 12.7369 14.2612 12.78C13.8787 12.855 13.47 12.8813 13.0931 12.9806C12.615 13.1063 12.54 13.2244 12.2287 13.6425C11.8537 14.1469 11.4787 14.6494 11.0981 15.15C10.9856 15.2981 11.0888 15.51 11.2744 15.5138C12.5419 15.5344 15.9431 15.6094 15.9562 15.8138C15.9675 15.9806 12.5812 16.5225 12.3375 16.5638C11.5631 16.6969 10.2544 16.6425 9.63375 17.0531C9.1575 17.3681 8.715 18.2119 8.35125 18.6581C10.5019 19.9425 13.2638 19.9388 15.4125 18.6544C17.2106 17.5781 18.0338 15.9469 18.4744 13.965C18.8981 12.06 19.0163 10.0763 19.0013 8.12813C18.9956 7.41563 18.975 6.70125 18.9038 5.9925C18.8813 5.75438 18.9056 5.12063 18.705 4.94438Z" fill="white"/>
</svg>
