<svg width="24" height="24" viewBox="0 0 24 24" fill="none" xmlns="http://www.w3.org/2000/svg">
<path d="M12 24C18.6274 24 24 18.6274 24 12C24 5.37258 18.6274 0 12 0C5.37258 0 0 5.37258 0 12C0 18.6274 5.37258 24 12 24Z" fill="#4D90D5"/>
<path d="M17.3438 14.25C17.3438 17.2013 14.9513 19.5938 12 19.5938C9.04875 19.5938 6.65625 17.2013 6.65625 14.25C6.65625 11.2987 10.9688 4.78125 12 4.78125C13.0312 4.78125 17.3438 11.2987 17.3438 14.25ZM12.6562 16.0312C11.1038 16.0312 9.84375 14.7712 9.84375 13.2188C9.84375 12.8419 9.91875 12.4838 10.0537 12.1556C9.19312 12.7256 8.625 13.7025 8.625 14.8125C8.625 16.5731 10.0519 18 11.8125 18C13.5731 18 15 16.5731 15 14.8125C15 14.7994 14.9981 14.7881 14.9981 14.775C14.4937 15.5325 13.6331 16.0312 12.6562 16.0312Z" fill="white"/>
</svg>
