<svg width="24" height="24" viewBox="0 0 24 24" fill="none" xmlns="http://www.w3.org/2000/svg">
<path d="M12 24C18.6274 24 24 18.6274 24 12C24 5.37258 18.6274 0 12 0C5.37258 0 0 5.37258 0 12C0 18.6274 5.37258 24 12 24Z" fill="#F97176"/>
<path d="M15.8513 17.91C12.5606 19.6687 8.07375 18.8587 6.12375 15.5081C4.34438 12.45 5.31188 8.15437 8.29313 6.21562C11.2481 4.29375 15.6244 5.1525 17.6888 7.99313C20.0944 11.3063 18.2906 16.2713 14.0494 16.665C12.2625 16.8319 10.29 16.005 9.43688 14.3587C8.66813 12.8775 9.0375 10.725 10.4419 9.74625C11.8406 8.77125 14.1169 8.94937 14.8313 10.6856C15.1331 11.4225 15.0188 12.4313 14.445 13.0144C13.9613 13.5056 12.8363 13.68 12.3131 13.125C12.12 12.9187 11.9213 12.5344 12.285 12.3881C12.4275 12.3319 12.7913 12.5812 12.9619 12.5794C13.7475 12.5681 13.9969 11.5763 13.5938 10.9931C13.1044 10.2881 12.0225 10.3406 11.4075 10.8188C10.6538 11.4038 10.5619 12.3731 10.8881 13.2169C11.5181 14.8519 13.5656 15.2213 14.9644 14.2856C16.3219 13.3781 16.5281 11.1937 15.84 9.81187C14.895 7.91437 12.3113 7.35938 10.4419 8.03438C8.58938 8.70375 7.48688 10.5244 7.44563 12.4556C7.40813 14.1825 8.23875 15.885 9.63563 16.905C11.4619 18.2419 13.725 17.91 15.8513 17.91Z" fill="#FEF5F5"/>
</svg>
