<svg width="24" height="24" viewBox="0 0 24 24" fill="none" xmlns="http://www.w3.org/2000/svg">
<path d="M12 24C18.6274 24 24 18.6274 24 12C24 5.37258 18.6274 0 12 0C5.37258 0 0 5.37258 0 12C0 18.6274 5.37258 24 12 24Z" fill="#92AADE"/>
<path d="M18.3769 14.265C17.5875 15.5981 16.6013 16.1756 15.33 16.3181C15.0206 16.3519 14.7056 16.3275 14.3962 16.365C14.1731 16.3931 14.0175 16.6331 14.2181 16.7419C15.1312 17.2406 14.3044 17.4787 14.0569 17.6775C12.1819 19.1925 9.4425 19.2956 7.40813 17.9662C5.32313 16.605 4.35375 14.0662 5.00625 11.6775C5.655 9.30375 7.7175 7.575 10.1531 7.46625C11.7094 7.39687 13.2731 7.40437 14.8313 7.4475C16.845 7.50375 18.6806 7.12125 20.1544 5.49187C20.4262 5.94375 20.3119 6.34125 20.2444 6.70875C19.7531 9.43125 17.4412 11.3906 14.655 11.4581C14.0944 11.4712 13.5319 11.4637 12.9712 11.4731C12.78 11.4769 12.57 11.5163 12.5681 11.7544C12.5662 11.9419 12.75 11.9944 12.9112 11.985C14.9662 11.8819 17.1187 12.4425 18.9937 11.0962C19.1306 10.9969 19.2938 10.8019 19.4719 11.0025C19.6181 11.1656 19.5113 11.3569 19.4194 11.52C18.5831 13.0069 17.3437 13.9031 15.6244 14.0625C15.1294 14.1075 14.6269 14.0644 14.1281 14.0906C13.8394 14.1056 13.3519 13.9556 13.3369 14.3438C13.32 14.79 13.8169 14.61 14.085 14.6062C15.4425 14.5912 16.8131 14.7787 18.3769 14.265Z" fill="#FDFDFE"/>
</svg>
