<svg width="24" height="24" viewBox="0 0 24 24" fill="none" xmlns="http://www.w3.org/2000/svg">
<path d="M12 24C18.6274 24 24 18.6274 24 12C24 5.37258 18.6274 0 12 0C5.37258 0 0 5.37258 0 12C0 18.6274 5.37258 24 12 24Z" fill="#096DC4"/>
<path d="M18.9169 10.7794C18.2906 7.65937 15.5944 5.28937 12.3225 5.16187C12.6056 4.43062 12.6019 3.55312 12.2813 2.71875C11.9138 3.54188 11.3756 4.28625 10.6931 4.87688C10.4025 5.12813 10.0688 5.40562 9.7125 5.55375C9.35625 5.70187 9.00375 5.83688 8.66625 6.02438C7.34625 6.75375 6.27938 7.90875 5.65875 9.28313C5.30063 10.0763 5.0925 10.9406 5.05125 11.8106C5.82563 11.5687 6.615 11.3756 7.41375 11.235C8.12437 11.1113 8.84251 11.0569 9.55313 10.9519C10.8694 10.7569 11.8988 10.0013 12.6225 8.895C14.1506 9.38438 15.21 10.8431 15.2119 12.4463C15.2138 13.875 14.3644 15.2081 13.0744 15.8175C12.3206 16.1737 11.4581 16.2619 10.6463 16.0762C11.0044 16.8844 11.58 17.5894 12.2981 18.105C12.6638 18.3675 13.0669 18.5794 13.4906 18.7331C13.68 18.8025 13.8994 18.9 14.0963 18.8681C14.3306 18.8288 14.58 18.705 14.7975 18.6131C16.5881 17.85 18.0113 16.3331 18.6581 14.4975C19.0763 13.3106 19.1644 12.0112 18.9169 10.7794ZM7.65188 8.4375C8.07938 8.01 8.6625 7.83375 9.21938 7.90688C9.37313 9.10875 8.325 10.1625 7.12125 10.005C7.04813 9.44812 7.22438 8.865 7.65188 8.4375ZM11.3269 19.1362C8.30062 18.8269 5.84626 16.5919 5.20501 13.6781C6.70688 12.8719 8.47125 12.4069 10.1831 12.4706C9.6 13.3613 9.29813 14.46 9.38813 15.525C9.48563 16.9969 10.2244 18.2925 11.3269 19.1362Z" fill="white"/>
</svg>
