<svg width="24" height="24" viewBox="0 0 24 24" fill="none" xmlns="http://www.w3.org/2000/svg">
<path d="M12 24C18.6274 24 24 18.6274 24 12C24 5.37258 18.6274 0 12 0C5.37258 0 0 5.37258 0 12C0 18.6274 5.37258 24 12 24Z" fill="#5A5366"/>
<path d="M18.0281 12C18.0281 15.2625 15.3844 17.9062 12.1219 17.9062C11.4488 17.9062 10.8019 17.7919 10.1981 17.5837C12.5156 16.785 14.1806 14.5875 14.1806 12C14.1806 9.4125 12.5156 7.215 10.1981 6.41625C10.8019 6.20813 11.4488 6.09375 12.1219 6.09375C15.3825 6.09375 18.0281 8.7375 18.0281 12ZM12 4.5C7.85812 4.5 4.5 7.85812 4.5 12C4.5 16.1419 7.85812 19.5 12 19.5C16.1419 19.5 19.5 16.1419 19.5 12C19.5 7.85812 16.1419 4.5 12 4.5Z" fill="white"/>
</svg>
