<svg width="24" height="24" viewBox="0 0 24 24" fill="none" xmlns="http://www.w3.org/2000/svg">
<path d="M12 24C18.6274 24 24 18.6274 24 12C24 5.37258 18.6274 0 12 0C5.37258 0 0 5.37258 0 12C0 18.6274 5.37258 24 12 24Z" fill="#5A8EA1"/>
<path d="M15.75 12C15.75 14.0719 14.0719 15.75 12 15.75C9.92812 15.75 8.25 14.0719 8.25 12C8.25 9.92812 9.92812 8.25 12 8.25C14.0719 8.25 15.75 9.92812 15.75 12ZM16.0781 4.93687H7.92188L3.84375 12L7.92188 19.0631H16.0781L20.1562 12L16.0781 4.93687Z" fill="white"/>
</svg>
